<svg width="100%" height="100%" viewBox="0 0 37 30" fill="none"
    xmlns="http://www.w3.org/2000/svg">
    <g clip-path="url(#clip0_846_60)">
        <path d="M37 13.9841L22.9225 0L18.4785 4.63238L28.0081 13.9841C28.0081 13.9841 37.1147 13.9841 36.9964 13.9841H37Z" fill="#9FC54F" style="fill:#9FC54F;fill:color(display-p3 0.6235 0.7725 0.3098);fill-opacity:1;"/>
        <path d="M0 13.9841L14.0775 0L18.5215 4.63238L8.99196 13.9841C8.99196 13.9841 -0.114684 13.9841 0.00358388 13.9841H0Z" fill="#9FC54F" style="fill:#9FC54F;fill:color(display-p3 0.6235 0.7725 0.3098);fill-opacity:1;"/>
        <path d="M-7.8634e-05 16.0159L14.0738 30L18.5178 25.3676L8.9883 16.0159C8.9883 16.0159 -0.118347 16.0159 -7.8634e-05 16.0159Z" fill="#4775B8" style="fill:#4775B8;fill:color(display-p3 0.2784 0.4588 0.7216);fill-opacity:1;"/>
        <path d="M37.0001 16.0159L22.9262 30L18.4822 25.3676L28.0117 16.0159C28.0117 16.0159 37.1184 16.0159 37.0001 16.0159Z" fill="#4775B8" style="fill:#4775B8;fill:color(display-p3 0.2784 0.4588 0.7216);fill-opacity:1;"/>
    </g>
    <defs>
        <clipPath id="clip0_846_60">
            <rect width="100%" height="100%" fill="white" style="fill:white;fill-opacity:1;"/>
        </clipPath>
    </defs>
</svg>
